<?xml version="1.0"?>
<svg xmlns="http://www.w3.org/2000/svg" height="512px" viewBox="0 -107 512 512" width="512px" class="hovered-paths"><g transform="matrix(1 0 0 1 0 0)"><path d="m362.667969 0h-213.335938c-82.324219 0-149.332031 66.988281-149.332031 149.332031 0 82.347657 67.007812 149.335938 149.332031 149.335938h213.335938c82.324219 0 149.332031-66.988281 149.332031-149.335938 0-82.34375-67.007812-149.332031-149.332031-149.332031zm-213.335938 234.667969c-47.058593 0-85.332031-38.273438-85.332031-85.335938 0-47.058593 38.273438-85.332031 85.332031-85.332031 47.0625 0 85.335938 38.273438 85.335938 85.332031 0 47.0625-38.273438 85.335938-85.335938 85.335938zm0 0" data-original="#000000" class="active-path" data-old_color="#000000" fill="#A0A0A0"/></g> </svg>
